<svg width="32" height="32" xmlns="http://www.w3.org/2000/svg" fill="none">
 <g>
  <path stroke="null" id="svg_1" fill-rule="evenodd" fill="#c5c5c5" d="m31.45571,4.96658c0.5887,0.58868 0.5887,1.54315 0,2.13184l-8.03967,8.03961c-0.5887,0.5887 -1.54301,0.5887 -2.13172,0c-0.5887,-0.5887 -0.5887,-1.54301 0,-2.13172l8.03967,-8.03973c0.5887,-0.58868 1.54301,-0.58868 2.13172,0zm-30.27062,12.05956c0.58868,-0.5887 1.54315,-0.5887 2.13184,0l6.97375,6.97361l2.95398,-2.95377c0.5887,-0.5887 1.54301,-0.5887 2.13172,0c0.5887,0.5887 0.5887,1.54301 0,2.13172l-4.01977,4.01983c-0.28269,0.2828 -0.66613,0.44158 -1.06592,0.44158c-0.39979,0 -0.78322,-0.15878 -1.06592,-0.44158l-8.03967,-8.03967c-0.58868,-0.5887 -0.58868,-1.54301 0,-2.13172z" clip-rule="evenodd"/>
 </g>
</svg>